<svg width="1600" height="560" viewBox="0 0 1600 560" fill="none" xmlns="http://www.w3.org/2000/svg">
  <defs>
    <linearGradient id="bg" x1="0" y1="0" x2="1600" y2="560" gradientUnits="userSpaceOnUse">
      <stop offset="0" stop-color="#08101F"/>
      <stop offset="0.55" stop-color="#101A33"/>
      <stop offset="1" stop-color="#17264A"/>
    </linearGradient>
    <linearGradient id="xgrad" x1="0" y1="0" x2="1" y2="1">
      <stop offset="0" stop-color="#FF3B30"/>
      <stop offset="0.55" stop-color="#FF6A3D"/>
      <stop offset="1" stop-color="#FF9A3D"/>
    </linearGradient>
    <linearGradient id="soft" x1="0" y1="0" x2="1" y2="0">
      <stop offset="0" stop-color="#FF4D4D" stop-opacity="0.18"/>
      <stop offset="1" stop-color="#FF7A45" stop-opacity="0.02"/>
    </linearGradient>
    <filter id="blur" x="-20%" y="-20%" width="140%" height="140%">
      <feGaussianBlur stdDeviation="44"/>
    </filter>
  </defs>

  <rect width="1600" height="560" rx="36" fill="url(#bg)"/>
  <rect x="72" y="72" width="1456" height="416" rx="28" fill="url(#soft)"/>
  <circle cx="1320" cy="118" r="220" fill="#2E4B8F" opacity="0.34" filter="url(#blur)"/>
  <circle cx="250" cy="440" r="185" fill="#FF4D4D" opacity="0.16" filter="url(#blur)"/>

  <g transform="translate(118 108)">
    <path d="M0 18H108L198 126H90L0 18Z" fill="url(#xgrad)"/>
    <path d="M96 18H204L294 126H186L96 18Z" fill="url(#xgrad)" opacity="0.84"/>
    <path d="M0 126H108L198 18H90L0 126Z" fill="url(#xgrad)" opacity="0.92"/>
    <path d="M96 126H204L294 18H186L96 126Z" fill="url(#xgrad)" opacity="0.72"/>
    <circle cx="294" cy="72" r="10" fill="#FFD2A8" opacity="0.9"/>
    <circle cx="316" cy="50" r="5" fill="#FFD2A8" opacity="0.55"/>
    <circle cx="332" cy="82" r="4" fill="#FFD2A8" opacity="0.5"/>
  </g>

  <text x="120" y="348" fill="#FFFFFF" font-size="82" font-family="Arial, Helvetica, sans-serif" font-weight="800" letter-spacing="1.5">Xbotics</text>
  <text x="120" y="414" fill="#E2E8FF" font-size="34" font-family="Arial, Helvetica, sans-serif" font-weight="500">Robot Simulation Training Camp</text>
  <text x="120" y="468" fill="#AAB4D6" font-size="24" font-family="Arial, Helvetica, sans-serif">IsaacLab · MotrixLab · Robotics · RL · Embodied AI</text>

  <g opacity="0.55">
    <rect x="1180" y="356" width="300" height="8" rx="4" fill="#FF6A3D"/>
    <rect x="1180" y="384" width="220" height="8" rx="4" fill="#FF6A3D"/>
    <rect x="1180" y="412" width="260" height="8" rx="4" fill="#FF6A3D"/>
  </g>
</svg>
